<?xml version="1.0" standalone="no"?>
<!DOCTYPE svg PUBLIC "-//W3C//DTD SVG 20010904//EN"
 "http://www.w3.org/TR/2001/REC-SVG-20010904/DTD/svg10.dtd">
<svg version="1.0" xmlns="http://www.w3.org/2000/svg"
 width="1170.000000pt" height="600.000000pt" viewBox="0 0 1170.000000 600.000000"
 preserveAspectRatio="xMidYMid meet">
<metadata>
Created by potrace 1.16, written by Peter Selinger 2001-2019
</metadata>
<g transform="translate(0.000000,600.000000) scale(0.100000,-0.100000)"
fill="#000000" stroke="none">
<path d="M2734 4507 c-343 -431 -565 -809 -674 -1149 -117 -368 -112 -713 15
-975 83 -170 255 -314 458 -384 90 -31 212 -59 258 -59 l29 0 2 -332 3 -333
33 -3 c27 -3 34 1 42 23 6 15 10 153 10 333 l0 307 100 18 c332 56 587 249
677 512 48 139 58 211 57 405 0 165 -3 198 -28 305 -71 305 -224 631 -454 969
-111 163 -385 516 -401 516 -3 0 -61 -69 -127 -153z m116 -74 l0 -68 -80 -83
-80 -84 0 -241 0 -242 -30 -17 c-78 -44 -25 -157 63 -134 32 8 60 56 52 89 -3
12 -19 31 -35 42 l-30 20 0 235 0 236 70 69 70 69 0 -406 0 -406 -26 -16 c-32
-22 -44 -54 -32 -89 27 -76 148 -57 148 24 0 22 -9 40 -31 60 l-31 29 -3 232
c-1 128 0 255 2 282 l5 48 64 -63 64 -63 0 -158 c0 -87 -4 -158 -8 -158 -21 0
-52 -43 -52 -71 0 -37 39 -79 75 -79 36 0 75 42 75 79 0 28 -31 71 -52 71 -4
0 -8 71 -8 157 l0 158 -82 82 -82 83 -2 161 c-1 88 2 174 5 191 l7 31 50 -64
c102 -129 203 -267 274 -374 75 -112 170 -271 170 -284 0 -4 -18 -25 -40 -46
l-40 -39 0 -166 0 -167 -41 -41 c-37 -39 -44 -42 -79 -36 -33 5 -43 2 -64 -19
-52 -52 -22 -131 49 -131 50 0 77 32 74 86 -3 33 2 44 39 81 l42 43 0 170 0
170 34 33 c21 20 39 30 46 26 13 -8 91 -169 134 -278 35 -88 81 -237 101 -329
19 -85 30 -358 18 -438 l-8 -55 -75 -3 -75 -3 -90 91 c-75 75 -95 90 -121 90
-23 0 -33 5 -37 19 -2 10 -16 27 -31 36 -31 21 -67 14 -96 -17 -61 -66 32
-164 103 -108 15 12 27 28 27 36 0 8 10 14 24 14 18 0 52 -26 117 -90 l92 -89
76 -3 c75 -3 76 -3 73 -28 -2 -14 -15 -56 -28 -95 -90 -259 -329 -426 -671
-470 -59 -8 -55 -13 -56 75 0 42 4 49 68 113 62 62 70 67 111 67 24 0 44 -4
44 -10 0 -22 41 -50 74 -50 25 0 40 7 55 26 28 35 26 69 -4 99 -35 36 -71 32
-111 -10 -27 -30 -39 -35 -73 -33 -36 1 -46 -4 -95 -53 -30 -30 -58 -52 -63
-49 -4 3 -8 45 -9 94 -1 88 -1 88 32 118 40 37 49 69 30 107 -17 33 -34 41
-81 41 -66 0 -99 -87 -52 -134 13 -13 29 -25 35 -27 9 -3 12 -39 10 -138 l-3
-135 -68 85 -68 84 6 75 c9 122 9 131 -11 151 -11 10 -33 21 -51 25 -62 12
-118 -77 -80 -127 19 -25 55 -41 85 -37 26 3 27 1 32 -49 4 -47 13 -63 83
-152 58 -75 77 -106 77 -130 0 -20 -5 -31 -14 -31 -29 0 -215 41 -267 59 -214
73 -366 213 -439 404 l-31 80 52 53 53 54 141 0 c97 0 145 4 153 12 7 7 30 11
52 9 32 -2 45 3 66 24 67 67 -33 166 -107 106 -19 -15 -23 -29 -24 -67 l0 -49
-142 -5 -142 -5 -49 -47 c-26 -27 -51 -48 -54 -48 -15 0 -33 156 -31 280 1
161 24 288 84 473 l42 127 51 0 51 0 99 -99 c89 -90 98 -102 92 -127 -13 -51
28 -104 80 -104 22 0 74 55 74 79 0 11 -11 33 -24 48 -20 24 -31 28 -69 26
-43 -1 -46 0 -143 98 -98 98 -99 99 -147 99 -59 0 -60 -6 29 171 107 215 239
421 422 662 59 77 111 146 117 153 19 27 25 14 25 -53z m60 -1903 c11 -11 20
-33 20 -49 0 -75 -104 -95 -130 -25 -13 34 -13 38 11 68 25 32 70 35 99 6z
m-218 -17 c52 -47 -9 -139 -76 -113 -25 9 -50 64 -39 84 27 48 79 61 115 29z"/>
<path d="M3170 3866 c-7 -9 -10 -27 -8 -41 3 -16 -1 -30 -13 -41 -17 -16 -19
-35 -19 -223 l0 -207 -67 -66 c-62 -60 -71 -66 -100 -61 -19 3 -33 11 -33 19
0 11 -17 14 -70 14 -53 0 -70 -3 -70 -14 0 -7 -12 -16 -27 -19 -24 -5 -38 4
-105 71 l-78 77 0 150 0 151 -30 29 c-22 21 -30 38 -30 62 0 26 -6 36 -25 45
-21 9 -28 8 -45 -7 -40 -36 -16 -92 35 -83 20 4 32 -2 55 -29 l30 -34 0 -147
0 -147 92 -92 c50 -51 99 -93 109 -93 12 0 19 -7 19 -20 0 -15 -7 -20 -25 -20
-20 0 -25 -5 -25 -25 0 -20 5 -25 24 -25 15 0 26 -7 29 -20 4 -17 0 -20 -24
-20 -16 0 -29 -5 -29 -10 0 -7 -28 -10 -72 -9 l-73 2 -120 118 c-75 74 -129
119 -141 119 -12 0 -29 9 -39 20 -32 36 -85 20 -85 -25 0 -45 59 -63 82 -25
24 38 50 23 175 -100 l121 -120 76 0 c44 0 76 -4 76 -10 0 -5 13 -10 29 -10
24 0 28 -3 24 -20 -3 -13 -14 -20 -29 -20 -13 0 -24 -4 -24 -10 0 -6 -88 -10
-245 -10 -151 0 -245 4 -245 10 0 19 -41 33 -66 21 -29 -13 -33 -57 -6 -77 24
-19 38 -17 61 7 18 20 26 20 277 17 143 -2 264 -7 271 -11 19 -12 3 -37 -23
-37 -19 0 -24 -5 -24 -25 0 -20 5 -25 25 -25 18 0 25 -5 25 -20 0 -14 -7 -20
-23 -20 -15 0 -59 -37 -142 -120 l-120 -120 -76 0 c-63 0 -79 3 -94 20 -24 27
-51 25 -71 -5 -15 -23 -15 -27 0 -50 20 -30 50 -32 73 -5 15 17 30 20 93 20
l75 0 117 117 c65 65 118 112 118 105 0 -7 13 -12 29 -12 24 0 28 -4 27 -27
-1 -28 0 -28 67 -31 l67 -3 0 31 c0 25 4 30 24 30 13 0 26 5 28 12 3 7 31 -15
65 -50 l61 -62 98 0 c93 0 99 -1 126 -27 17 -16 28 -37 28 -53 0 -15 9 -35 20
-45 17 -15 24 -16 45 -7 51 23 20 104 -33 87 -12 -3 -28 5 -47 25 -28 29 -31
30 -130 30 l-101 0 -69 70 c-45 46 -77 70 -92 70 -16 0 -23 6 -23 20 0 15 7
20 25 20 20 0 25 5 25 25 0 20 -5 25 -25 25 -18 0 -25 5 -25 19 0 27 48 32
316 33 214 1 221 1 242 -20 26 -26 31 -27 60 -6 27 18 28 45 4 67 -25 23 -49
21 -64 -3 -12 -19 -24 -20 -260 -20 -159 0 -248 4 -248 10 0 6 -11 10 -25 10
-18 0 -25 5 -25 19 0 22 40 31 146 31 l71 0 72 75 73 75 77 0 c65 0 78 -3 89
-20 23 -38 82 -20 82 25 0 45 -56 61 -87 25 -15 -17 -30 -20 -93 -20 l-76 0
-69 -70 -69 -70 -83 0 c-49 0 -83 4 -83 10 0 6 -11 10 -25 10 -18 0 -25 5 -25
20 0 15 7 20 25 20 20 0 25 5 25 25 0 20 -5 25 -25 25 -18 0 -25 5 -25 20 0
14 7 20 23 20 17 0 50 27 110 90 l87 89 0 200 c0 110 3 206 6 215 4 10 18 16
40 16 44 0 70 34 50 65 -17 25 -58 31 -76 11z"/>
<path d="M4501 3618 c-10 -24 -78 -176 -151 -338 -73 -162 -141 -314 -151
-337 l-18 -43 32 0 c32 0 33 2 82 116 58 134 89 174 134 174 18 0 73 -17 124
-37 75 -30 105 -37 162 -37 l70 0 49 -108 c48 -105 50 -108 81 -108 l33 0 -54
117 c-30 65 -54 123 -54 130 0 6 13 26 29 44 l30 32 -22 18 c-21 17 -23 17
-43 -2 -11 -10 -23 -19 -26 -19 -3 0 -49 99 -103 220 l-98 220 -44 0 c-42 0
-44 -2 -62 -42z m160 -224 c49 -109 89 -204 89 -211 0 -22 -64 -15 -152 18
-46 18 -108 37 -139 43 l-56 11 54 120 c30 66 65 144 79 174 13 30 27 51 30
48 4 -3 46 -95 95 -203z"/>
<path d="M5030 3630 l0 -30 130 0 130 0 0 -350 0 -350 30 0 30 0 0 350 0 350
135 0 135 0 0 30 0 30 -295 0 -295 0 0 -30z"/>
<path d="M5700 3280 l0 -380 250 0 250 0 0 25 0 25 -220 0 -220 0 0 355 0 355
-30 0 -30 0 0 -380z"/>
<path d="M6578 3553 c-26 -60 -101 -229 -168 -376 -66 -148 -120 -272 -120
-276 0 -5 14 -6 31 -2 28 6 36 16 85 126 58 128 88 165 134 165 15 0 70 -17
121 -37 75 -29 108 -37 163 -37 l68 -1 47 -105 c43 -96 49 -105 79 -111 18 -4
32 -3 32 1 0 4 -25 62 -56 130 l-55 123 33 34 33 34 -24 20 -24 20 -22 -27
-21 -26 -100 223 -100 224 -44 3 -45 2 -47 -107z m189 -160 c51 -113 89 -211
86 -216 -9 -15 -92 0 -175 33 -43 17 -98 33 -123 37 -25 3 -44 9 -43 13 22 56
153 340 157 340 3 0 47 -93 98 -207z"/>
<path d="M7140 3281 l0 -381 30 0 30 0 0 346 0 346 270 -262 270 -262 0 -84 0
-84 30 0 30 0 0 380 0 380 -30 0 -30 0 -2 -252 -3 -252 -259 250 c-238 229
-261 249 -297 252 l-39 3 0 -380z"/>
<path d="M7880 3630 l0 -30 130 0 130 0 0 -350 0 -350 30 0 30 0 0 350 0 350
130 0 130 0 0 30 0 30 -290 0 -290 0 0 -30z"/>
<path d="M8557 3648 c6 -7 71 -95 147 -195 l136 -182 0 -185 c0 -192 2 -199
43 -188 15 4 17 22 17 191 l0 187 140 188 c77 104 140 190 140 192 0 2 -15 4
-34 4 -32 0 -40 -8 -152 -160 -66 -87 -122 -159 -127 -160 -4 0 -60 72 -125
159 -115 157 -118 160 -156 160 -29 1 -36 -2 -29 -11z"/>
<path d="M9406 3645 c-144 -51 -181 -240 -65 -328 38 -28 91 -36 229 -37 110
0 131 -3 170 -22 118 -60 119 -226 3 -284 -33 -16 -67 -19 -240 -22 l-203 -3
0 -25 0 -24 213 0 c205 0 216 1 258 23 157 83 156 299 -1 387 -41 22 -60 25
-205 30 -98 3 -169 10 -182 18 -82 46 -66 178 27 224 30 15 65 18 243 18 l207
0 0 30 0 30 -207 0 c-151 -1 -219 -5 -247 -15z"/>
</g>
</svg>
